<svg width="138" height="26" viewBox="0 0 138 26" fill="none" xmlns="http://www.w3.org/2000/svg">
<g clip-path="url(#clip0_1_376)">
<mask id="mask0_1_376" style="mask-type:luminance" maskUnits="userSpaceOnUse" x="0" y="0" width="138" height="26">
<path d="M138 0H0V26H138V0Z" fill="white"/>
</mask>
<g mask="url(#mask0_1_376)">
<path d="M100.03 7.10958C99.7223 7.2412 99.4599 7.4649 99.2772 7.75191C99.0935 8.03892 98.9993 8.37614 99.0041 8.7202C99.0099 9.06427 99.1149 9.39946 99.3064 9.68269C99.4978 9.96592 99.767 10.1842 100.079 10.3096C103.111 11.5196 107.659 13.9196 105.56 18.2696C103.995 21.5196 99.3695 21.4596 96.6581 20.0696C96.224 19.8429 96.0782 19.4896 96.2208 19.0096L96.5707 17.8796C96.7196 17.3863 97.0209 17.2496 97.4745 17.4696C99.078 18.2396 101.381 18.8596 102.645 17.3196C102.82 17.1051 102.948 16.8535 103.019 16.5826C103.089 16.3118 103.1 16.0286 103.052 15.7532C103.004 15.4779 102.897 15.2173 102.739 14.9902C102.581 14.7631 102.376 14.575 102.139 14.4396C99.6805 13.0296 95.2587 11.3196 96.2111 7.74958C97.2509 3.83958 101.819 3.17958 104.783 4.86958C105.203 5.10958 105.31 5.44958 105.103 5.88958L104.559 7.10958C104.517 7.19772 104.458 7.27584 104.385 7.33875C104.312 7.40165 104.228 7.44789 104.136 7.47439C104.045 7.50089 103.95 7.50703 103.857 7.4924C103.764 7.47778 103.676 7.44273 103.597 7.38958C102.489 6.65625 101.301 6.56292 100.03 7.10958Z" fill="black"/>
<path d="M116.173 21.0408C114.023 21.0331 111.965 20.1259 110.451 18.5189C108.935 16.9119 108.089 14.7367 108.097 12.4718C108.105 10.2069 108.966 8.03779 110.491 6.44171C112.016 4.84563 114.081 3.95329 116.231 3.96099C118.381 3.96872 120.439 4.87587 121.953 6.48286C123.468 8.08986 124.315 10.2651 124.307 12.53C124.299 14.7949 123.438 16.964 121.912 18.5601C120.387 20.1562 118.322 21.0485 116.173 21.0408ZM116.212 18.2409C117.606 18.2409 118.943 17.6362 119.929 16.5597C120.915 15.4832 121.469 14.0232 121.469 12.5009C121.469 10.9786 120.915 9.51856 119.929 8.4421C118.943 7.36564 117.606 6.76089 116.212 6.76089C114.817 6.76089 113.48 7.36564 112.494 8.4421C111.508 9.51856 110.954 10.9786 110.954 12.5009C110.954 14.0232 111.508 15.4832 112.494 16.5597C113.48 17.6362 114.817 18.2409 116.212 18.2409Z" fill="black"/>
<path d="M43.2267 17.9991H49.3395C49.4004 17.9991 49.4605 18.0116 49.5166 18.0358C49.5727 18.06 49.6234 18.0956 49.666 18.1403C49.7085 18.185 49.742 18.238 49.7643 18.2962C49.7868 18.3543 49.7975 18.4165 49.7963 18.4791L49.7768 20.2791C49.7743 20.402 49.725 20.519 49.6397 20.605C49.5543 20.691 49.4395 20.7391 49.3201 20.7391L40.3015 20.7291C40.1803 20.7291 40.0642 20.6796 39.9785 20.5914C39.8928 20.5033 39.8447 20.3837 39.8447 20.2591V4.75906C39.8447 4.63441 39.8928 4.51487 39.9785 4.42672C40.0642 4.33858 40.1803 4.28906 40.3015 4.28906H42.3132C42.4344 4.28906 42.5505 4.33858 42.6361 4.42672C42.7218 4.51487 42.7699 4.63441 42.7699 4.75906V17.5291C42.7699 17.6537 42.818 17.7733 42.9038 17.8614C42.9894 17.9496 43.1055 17.9991 43.2267 17.9991Z" fill="black"/>
<path d="M55.4235 18H62.4304C62.4997 17.9999 62.5683 18.0143 62.6321 18.0422C62.6959 18.07 62.7536 18.1109 62.8017 18.1622C62.8498 18.2136 62.8873 18.2744 62.912 18.341C62.9367 18.4077 62.9481 18.4787 62.9455 18.55L62.8872 20.23C62.8821 20.3671 62.8257 20.4968 62.7296 20.5919C62.6335 20.687 62.5054 20.7401 62.3721 20.74L52.508 20.73C52.3714 20.73 52.2404 20.6742 52.1438 20.5748C52.0472 20.4754 51.993 20.3406 51.993 20.2V4.79999C51.993 4.65943 52.0472 4.52462 52.1438 4.42523C52.2404 4.32583 52.3714 4.26999 52.508 4.26999L62.1583 4.25999C62.2932 4.25997 62.4228 4.31443 62.5191 4.41168C62.6155 4.50892 62.6708 4.64117 62.6734 4.77999L62.7122 6.47999C62.7135 6.55043 62.7012 6.62043 62.6759 6.68589C62.6505 6.75135 62.6128 6.81096 62.5648 6.86124C62.5169 6.91152 62.4597 6.95146 62.3966 6.97872C62.3334 7.00597 62.2657 7.02001 62.1972 7.01999L55.4235 7.00999C55.2869 7.00999 55.1559 7.06583 55.0593 7.16523C54.9627 7.26462 54.9084 7.39943 54.9084 7.53999L54.9182 9.83999C54.9182 9.98056 54.9724 10.1154 55.069 10.2148C55.1656 10.3142 55.2966 10.37 55.4332 10.37H61.8182C61.9548 10.37 62.0858 10.4258 62.1824 10.5252C62.279 10.6246 62.3332 10.7594 62.3332 10.9L62.3527 12.48C62.3527 12.6206 62.2984 12.7554 62.2018 12.8548C62.1052 12.9542 61.9742 13.01 61.8376 13.01L55.4235 13.02C55.2869 13.02 55.1559 13.0758 55.0593 13.1752C54.9627 13.2746 54.9084 13.4094 54.9084 13.55V17.47C54.9084 17.6106 54.9627 17.7454 55.0593 17.8448C55.1559 17.9442 55.2869 18 55.4235 18Z" fill="black"/>
<path d="M68.6603 17.1101L67.4844 20.3901C67.4438 20.5041 67.3693 20.6021 67.2718 20.6702C67.1741 20.7384 67.0581 20.7733 66.9402 20.7701L65.1228 20.7101C65.033 20.7068 64.9451 20.6814 64.8666 20.6361C64.7881 20.5907 64.7214 20.5267 64.6719 20.4494C64.6224 20.372 64.5917 20.2836 64.5822 20.1915C64.5728 20.0995 64.5848 20.0064 64.6175 19.9201L70.429 4.62008C70.4707 4.5096 70.5443 4.41492 70.6398 4.34876C70.7355 4.28261 70.8484 4.24817 70.9635 4.25008L73.3737 4.28008C73.4884 4.28098 73.6 4.31784 73.6938 4.38573C73.7875 4.45363 73.8589 4.54933 73.8985 4.66008L79.2727 19.9101C79.3034 19.9958 79.314 20.0879 79.3036 20.1786C79.2931 20.2694 79.262 20.3563 79.2127 20.4323C79.1636 20.5084 79.0975 20.5714 79.0201 20.6161C78.9427 20.6609 78.8561 20.6863 78.7674 20.6901L76.9598 20.7701C76.8402 20.7755 76.722 20.7416 76.6224 20.6732C76.5228 20.6049 76.447 20.5058 76.4058 20.3901L75.259 17.1201C75.2189 17.0078 75.146 16.9109 75.0504 16.8429C74.9547 16.7749 74.8409 16.739 74.7245 16.7401L69.1948 16.7301C69.0785 16.729 68.9647 16.7649 68.869 16.8329C68.7733 16.9009 68.7004 16.9978 68.6603 17.1101ZM69.982 13.5501C69.9648 13.5949 69.9584 13.6433 69.9631 13.6911C69.968 13.739 69.9839 13.785 70.0097 13.8252C70.0354 13.8654 70.0701 13.8987 70.1111 13.9222C70.1519 13.9456 70.1976 13.9586 70.2444 13.9601L73.7916 14.0201C73.8388 14.0213 73.8856 14.0106 73.9279 13.989C73.9703 13.9675 74.0068 13.9356 74.0346 13.8963C74.0623 13.8569 74.0803 13.8112 74.0871 13.7631C74.0939 13.715 74.0892 13.6659 74.0734 13.6201L72.3824 8.52008C72.3643 8.45969 72.3281 8.40672 72.279 8.36876C72.2298 8.33079 72.1704 8.30976 72.109 8.30865C72.0475 8.30754 71.9874 8.32642 71.937 8.36259C71.8866 8.39876 71.8487 8.45038 71.8285 8.51008L69.982 13.5501Z" fill="black"/>
<path d="M81.3711 4.94977C81.3711 4.76942 81.4408 4.59646 81.5647 4.46894C81.6886 4.34141 81.8567 4.26977 82.0319 4.26977L86.4343 4.25977C88.3906 4.25714 90.2678 5.05848 91.6529 6.4875C93.038 7.91653 93.8176 9.85618 93.8202 11.8798V13.0998C93.8215 14.1018 93.632 15.0942 93.2625 16.0205C92.893 16.9467 92.3507 17.7885 91.6668 18.498C90.9827 19.2074 90.1702 19.7706 89.2758 20.1552C88.3814 20.5399 87.4224 20.7385 86.4538 20.7398L82.0514 20.7498C81.8762 20.7498 81.708 20.6782 81.5841 20.5506C81.4601 20.4231 81.3905 20.2501 81.3905 20.0698L81.3711 4.94977ZM84.306 7.41977L84.3449 17.5198C84.3449 17.6391 84.391 17.7536 84.473 17.838C84.555 17.9224 84.6663 17.9698 84.7822 17.9698L86.2594 17.9598C87.4822 17.9546 88.6528 17.4378 89.5146 16.5229C90.3765 15.608 90.8589 14.3697 90.8562 13.0798V11.8198C90.8548 11.1794 90.7338 10.5456 90.5 9.95462C90.2662 9.36364 89.9242 8.82708 89.4937 8.37566C89.063 7.92424 88.5523 7.56683 87.9907 7.32387C87.429 7.08091 86.8275 6.95718 86.2205 6.95977L84.7433 6.96977C84.6274 6.96977 84.5161 7.01718 84.4341 7.10157C84.3521 7.18596 84.306 7.30042 84.306 7.41977Z" fill="black"/>
<path d="M138 20.1308V20.5108C137.183 20.7641 136.335 20.8241 135.453 20.6908C135.13 20.6441 134.883 20.4741 134.715 20.1808C133.814 18.6475 132.975 17.0808 132.198 15.4808C131.855 14.7808 131.233 14.6308 130.332 15.0308C130.111 15.1308 130.001 15.3075 130.001 15.5608V19.9608C130.001 20.4475 129.765 20.6975 129.292 20.7108L127.805 20.7508C127.319 20.7641 127.076 20.5175 127.076 20.0108L127.086 4.77085C127.086 4.65917 127.127 4.55157 127.201 4.46986C127.274 4.38816 127.376 4.33846 127.484 4.33085C129.234 4.20418 131.034 4.20751 132.888 4.34085C138.058 4.72085 139.759 11.3508 135.278 14.1108C134.98 14.2908 134.916 14.5375 135.084 14.8508L138 20.1308ZM130.001 7.26085V11.9808C130.001 12.0524 130.029 12.1211 130.078 12.1717C130.128 12.2224 130.194 12.2508 130.264 12.2508H132.062C132.82 12.2508 133.547 11.9885 134.082 11.5215C134.618 11.0545 134.919 10.4212 134.919 9.76085V9.48085C134.919 8.82046 134.618 8.18712 134.082 7.72015C133.547 7.25318 132.82 6.99085 132.062 6.99085H130.264C130.194 6.99085 130.128 7.01929 130.078 7.06993C130.029 7.12056 130.001 7.18924 130.001 7.26085Z" fill="black"/>
<path d="M15.1311 9.00977H10.1553C9.38783 9.00977 8.76562 9.65001 8.76562 10.4398V15.5598C8.76562 16.3496 9.38783 16.9898 10.1553 16.9898H15.1311C15.8987 16.9898 16.5208 16.3496 16.5208 15.5598V10.4398C16.5208 9.65001 15.8987 9.00977 15.1311 9.00977Z" fill="#FF9C00"/>
<path d="M15.1116 0H10.1358C9.36829 0 8.74609 0.640232 8.74609 1.43V6.55C8.74609 7.33977 9.36829 7.98 10.1358 7.98H15.1116C15.8791 7.98 16.5013 7.33977 16.5013 6.55V1.43C16.5013 0.640232 15.8791 0 15.1116 0Z" fill="#FF9C00"/>
<path d="M23.8584 18H18.8827C18.1151 18 17.493 18.6402 17.493 19.43V24.55C17.493 25.3398 18.1151 25.98 18.8827 25.98H23.8584C24.626 25.98 25.2482 25.3398 25.2482 24.55V19.43C25.2482 18.6402 24.626 18 23.8584 18Z" fill="#FF9C00"/>
<path d="M6.36549 9H1.38972C0.622197 9 0 9.64023 0 10.43V15.55C0 16.3398 0.622197 16.98 1.38972 16.98H6.36549C7.13302 16.98 7.75521 16.3398 7.75521 15.55V10.43C7.75521 9.64023 7.13302 9 6.36549 9Z" fill="black"/>
<path d="M6.36549 0H1.38972C0.622197 0 0 0.640232 0 1.43V6.55C0 7.33977 0.622197 7.98 1.38972 7.98H6.36549C7.13302 7.98 7.75521 7.33977 7.75521 6.55V1.43C7.75521 0.640232 7.13302 0 6.36549 0Z" fill="black"/>
<path d="M23.8584 0H18.8827C18.1151 0 17.493 0.640232 17.493 1.43V6.55C17.493 7.33977 18.1151 7.98 18.8827 7.98H23.8584C24.626 7.98 25.2482 7.33977 25.2482 6.55V1.43C25.2482 0.640232 24.626 0 23.8584 0Z" fill="black"/>
<path d="M15.1116 18H10.1358C9.36829 18 8.74609 18.6402 8.74609 19.43V24.55C8.74609 25.3398 9.36829 25.98 10.1358 25.98H15.1116C15.8791 25.98 16.5013 25.3398 16.5013 24.55V19.43C16.5013 18.6402 15.8791 18 15.1116 18Z" fill="black"/>
<path d="M6.36549 18H1.38972C0.622197 18 0 18.6402 0 19.43V24.55C0 25.3398 0.622197 25.98 1.38972 25.98H6.36549C7.13302 25.98 7.75521 25.3398 7.75521 24.55V19.43C7.75521 18.6402 7.13302 18 6.36549 18Z" fill="black"/>
<path d="M23.8467 8.97274L18.8518 9.02657C18.0842 9.03484 17.4686 9.68174 17.4766 10.4714L17.5289 15.6112C17.537 16.4009 18.1657 17.0344 18.9331 17.0261L23.9281 16.9723C24.6956 16.964 25.3113 16.3171 25.3032 15.5274L25.2509 10.3877C25.2428 9.59797 24.6142 8.96447 23.8467 8.97274Z" fill="#FF9C00"/>
</g>
</g>
<defs>
<clipPath id="clip0_1_376">
<rect width="138" height="26" fill="white"/>
</clipPath>
</defs>
</svg>
