<svg width="236" height="54" viewBox="0 0 236 54" fill="none" xmlns="http://www.w3.org/2000/svg">
<path d="M15.2092 2.1582H19.667L28.4515 26.0532H23.6004L21.6337 19.9782H13.1115L11.1448 26.0532H6.4248L15.2092 2.1582ZM20.4537 16.3332L17.4381 7.0182L14.4226 16.3332H20.4537Z" fill="#CE203E"/>
<path d="M27.665 9.31445H32.385L36.7117 21.3295L41.1695 9.31445H45.6273L38.6784 26.0545H34.4828L27.665 9.31445Z" fill="#CE203E"/>
<path d="M62.4096 23.6239C62.2785 23.7589 62.1474 23.8939 61.8852 24.1639C61.6229 24.4339 61.0985 24.8389 60.5741 25.1089C59.9185 25.5139 59.2629 25.7839 58.3452 26.0539C57.4274 26.3239 56.3785 26.4589 55.0674 26.4589C53.7563 26.4589 52.5763 26.1889 51.5274 25.7839C50.4785 25.3789 49.5607 24.7039 48.7741 23.8939C47.9874 23.0839 47.463 22.1389 47.0696 21.0589C46.6763 19.9789 46.4141 18.6289 46.4141 17.4139C46.4141 16.1989 46.6763 14.9839 47.0696 13.9039C47.463 12.8239 47.9874 11.8789 48.7741 11.0689C49.5607 10.2589 50.3474 9.71891 51.3963 9.17891C52.4452 8.77391 53.4941 8.50391 54.8052 8.50391C56.2474 8.50391 57.5585 8.77391 58.6074 9.31391C59.6563 9.85391 60.4429 10.6639 61.0985 11.4739C61.7541 12.4189 62.1474 13.3639 62.4096 14.5789C62.6718 15.7939 62.8029 16.8739 62.8029 18.0889V18.8989H50.6096C50.6096 19.5739 50.7407 20.1139 51.003 20.6539C51.2652 21.1939 51.6585 21.5989 52.0518 22.0039C52.4452 22.4089 52.9696 22.6789 53.4941 22.8139C54.0185 22.9489 54.5429 23.0839 55.0674 23.0839C55.8541 23.0839 56.5096 22.9489 57.1652 22.8139C57.8207 22.6789 58.2141 22.5439 58.6074 22.2739C59.0007 22.0039 59.3941 21.8689 59.6563 21.5989C59.9185 21.3289 60.0496 21.1939 60.3118 21.0589L62.4096 23.6239ZM58.4763 15.9289C58.4763 15.5239 58.3452 15.1189 58.2141 14.5789C58.083 14.1739 57.8207 13.7689 57.5585 13.3639C57.2963 12.9589 56.9029 12.6889 56.3785 12.5539C55.8541 12.2839 55.3296 12.2839 54.6741 12.2839C54.0185 12.2839 53.3629 12.4189 52.8385 12.5539C52.3141 12.8239 51.9207 13.0939 51.5274 13.3639C51.1341 13.7689 50.8718 14.0389 50.7407 14.5789C50.6096 14.9839 50.4785 15.3889 50.4785 15.9289H58.4763Z" fill="#CE203E"/>
<path d="M65.8184 9.3132H69.7517L69.8828 11.2032C70.145 10.9332 70.2761 10.6632 70.6695 10.3932C70.9317 10.1232 71.325 9.8532 71.7184 9.7182C72.1117 9.4482 72.6361 9.3132 73.0295 9.1782C73.4228 9.0432 74.0784 8.9082 74.7339 8.9082C76.7006 8.9082 78.2739 9.5832 79.3228 10.7982C80.3717 12.0132 80.8961 13.7682 80.8961 15.9282V26.0532H76.8317V15.9282C76.8317 14.8482 76.5695 14.0382 76.045 13.4982C75.5206 12.9582 74.7339 12.6882 73.8161 12.6882C73.2917 12.6882 72.7672 12.8232 72.2428 12.9582C71.7184 13.2282 71.325 13.4982 70.9317 13.9032C70.5384 14.3082 70.2761 14.7132 70.145 15.2532C69.8828 15.7932 69.8828 16.3332 69.8828 17.0082V26.0532H65.8184V9.3132Z" fill="#CE203E"/>
<path d="M86.2719 12.6891H83.5186V9.31406H86.2719V3.91406H90.3363V9.31406H94.663V12.6891H90.3363V19.9791C90.3363 20.9241 90.4674 21.7341 90.7297 22.1391C90.9919 22.6791 91.5163 22.9491 92.1719 22.9491C92.8274 22.9491 93.3519 22.8141 93.7452 22.6791C94.1386 22.5441 94.5319 22.2741 94.7941 22.0041L96.4986 24.5691C95.7119 25.2441 94.9252 25.7841 94.1386 26.0541C93.3519 26.3241 92.4341 26.4591 91.5163 26.4591C90.4674 26.4591 89.6808 26.3241 89.0252 26.0541C88.3697 25.7841 87.7141 25.3791 87.3208 24.8391C86.9274 24.2991 86.5341 23.6241 86.403 22.8141C86.2719 22.0041 86.1408 21.1941 86.1408 20.2491L86.2719 12.6891Z" fill="#CE203E"/>
<path d="M98.4648 9.31445H102.529V19.4395C102.529 20.5195 102.792 21.3295 103.316 21.8695C103.84 22.4095 104.627 22.6795 105.545 22.6795C106.069 22.6795 106.594 22.5445 107.118 22.4095C107.643 22.1395 108.036 21.8695 108.429 21.4645C108.823 21.0595 109.085 20.6545 109.216 20.1145C109.478 19.5745 109.478 19.0345 109.478 18.3595V9.31445H113.543V26.0545H109.609L109.478 24.1645C109.216 24.4345 109.085 24.7045 108.692 24.9745C108.429 25.2445 108.036 25.5145 107.643 25.6495C107.249 25.9195 106.856 26.0545 106.332 26.1895C105.807 26.3245 105.283 26.4595 104.627 26.4595C102.66 26.4595 101.087 25.7845 100.038 24.5695C98.9893 23.3545 98.4648 21.5995 98.4648 19.4395V9.31445Z" fill="#CE203E"/>
<path d="M119.312 21.1934C119.836 21.7334 120.492 22.1384 121.279 22.5434C122.065 22.8134 122.983 23.0834 123.901 23.0834C124.819 23.0834 125.474 22.9484 125.999 22.6784C126.523 22.4084 126.785 22.0034 126.785 21.4634C126.785 21.1934 126.785 21.0584 126.654 20.7884C126.523 20.5184 126.392 20.3834 125.999 20.2484C125.736 20.1134 125.212 19.8434 124.687 19.7084C124.163 19.5734 123.376 19.3034 122.459 19.0334C121.934 18.8984 121.279 18.7634 120.754 18.4934C120.099 18.2234 119.574 17.9534 119.05 17.5484C118.525 17.1434 118.132 16.6034 117.739 16.0634C117.345 15.5234 117.214 14.7134 117.214 14.0384C117.214 13.2284 117.476 12.4184 117.87 11.7434C118.263 11.0684 118.787 10.5284 119.443 10.1234C120.099 9.71844 120.754 9.31344 121.672 9.17844C122.459 8.90844 123.245 8.77344 124.032 8.77344C125.474 8.77344 126.654 8.90844 127.703 9.17844C128.752 9.44844 129.67 9.98844 130.456 10.5284L128.49 13.4984C128.096 13.2284 127.441 12.8234 126.785 12.5534C125.999 12.2834 125.212 12.1484 124.294 12.1484C123.376 12.1484 122.59 12.2834 122.327 12.5534C121.934 12.8234 121.803 13.2284 121.803 13.6334C121.803 14.1734 122.065 14.5784 122.721 14.8484C123.376 15.1184 124.425 15.5234 125.736 15.7934C126.523 15.9284 127.31 16.1984 127.965 16.4684C128.621 16.7384 129.145 17.1434 129.67 17.5484C130.194 17.9534 130.456 18.4934 130.719 19.0334C130.981 19.5734 131.112 20.3834 131.112 21.0584C131.112 21.8684 130.981 22.5434 130.587 23.2184C130.194 23.8934 129.67 24.4334 129.145 24.8384C128.49 25.2434 127.834 25.6484 126.916 25.9184C126.13 26.1884 125.212 26.3234 124.163 26.3234C122.59 26.3234 121.279 26.0534 120.099 25.6484C118.919 25.2434 117.87 24.5684 117.083 23.7584L119.312 21.1934Z" fill="#CE203E"/>
<path d="M153.269 13.3641H161.529V23.2191C160.612 24.1641 159.432 24.8391 157.989 25.5141C156.547 26.1891 154.58 26.4591 152.352 26.4591C150.516 26.4591 148.812 26.1891 147.238 25.5141C145.796 24.8391 144.485 24.0291 143.436 22.9491C142.387 21.8691 141.6 20.5191 141.076 19.0341C140.552 17.5491 140.289 15.9291 140.289 14.1741C140.289 12.4191 140.552 10.7991 141.207 9.31414C141.863 7.82914 142.649 6.47914 143.698 5.26414C144.747 4.04914 146.058 3.23914 147.5 2.56414C148.943 1.88914 150.516 1.61914 152.352 1.61914C153.532 1.61914 154.58 1.75414 155.498 2.02414C156.416 2.29414 157.334 2.56414 158.12 2.96914C158.907 3.37414 159.563 3.91414 160.218 4.45414C160.874 4.99414 161.398 5.66914 161.792 6.34414L158.776 9.17914C157.989 8.09914 157.203 7.15414 156.154 6.47914C155.105 5.80414 153.925 5.53414 152.483 5.53414C151.303 5.53414 150.254 5.80414 149.467 6.20914C148.549 6.61414 147.763 7.28914 147.107 8.09914C146.452 8.90914 145.927 9.85414 145.665 10.7991C145.272 11.8791 145.14 12.9591 145.14 14.0391C145.14 15.3891 145.403 16.4691 145.796 17.5491C146.189 18.4941 146.714 19.4391 147.5 20.2491C148.156 21.0591 149.074 21.5991 149.992 22.0041C150.909 22.4091 151.958 22.5441 153.007 22.5441C155.105 22.5441 156.809 22.0041 157.989 20.9241V17.2791H153.925L153.269 13.3641Z" fill="#CE203E"/>
<path d="M165.725 9.3132H169.658L169.789 11.4732C169.92 11.2032 170.182 10.9332 170.445 10.6632C170.707 10.3932 171.1 10.1232 171.493 9.8532C171.887 9.5832 172.28 9.4482 172.805 9.1782C173.329 8.9082 173.985 8.9082 174.64 8.9082C175.033 8.9082 175.427 8.9082 175.689 9.0432C175.951 9.1782 176.345 9.1782 176.607 9.3132L175.82 13.2282C175.558 13.0932 175.296 12.9582 175.033 12.9582C174.771 12.9582 174.378 12.8232 173.985 12.8232C173.46 12.8232 172.936 12.9582 172.411 13.0932C171.887 13.2282 171.493 13.4982 171.1 13.9032C170.707 14.3082 170.445 14.7132 170.182 15.2532C169.92 15.7932 169.92 16.3332 169.92 17.0082V26.0532H165.856L165.725 9.3132Z" fill="#CE203E"/>
<path d="M178.312 17.5487C178.312 16.3337 178.574 15.1187 178.967 14.0387C179.36 12.9587 180.016 12.0137 180.803 11.2037C181.589 10.3937 182.507 9.71867 183.556 9.31367C184.605 8.90867 185.785 8.63867 187.096 8.63867C188.407 8.63867 189.587 8.90867 190.636 9.31367C191.685 9.71867 192.603 10.3937 193.389 11.2037C194.176 12.0137 194.7 12.9587 195.225 14.0387C195.618 15.1187 195.88 16.3337 195.88 17.5487C195.88 18.7637 195.618 19.9787 195.225 21.0587C194.832 22.1387 194.176 23.0837 193.389 23.8937C192.603 24.7037 191.685 25.3787 190.636 25.7837C189.587 26.1887 188.407 26.4587 187.096 26.4587C185.785 26.4587 184.605 26.1887 183.556 25.7837C182.507 25.3787 181.589 24.7037 180.803 23.8937C180.016 23.0837 179.492 22.1387 178.967 21.0587C178.443 19.9787 178.312 18.7637 178.312 17.5487ZM186.965 22.9487C187.752 22.9487 188.407 22.8137 189.063 22.5437C189.718 22.2737 190.112 21.7337 190.505 21.3287C190.898 20.7887 191.16 20.2487 191.292 19.5737C191.423 18.8987 191.554 18.3587 191.554 17.6837C191.554 17.1437 191.423 16.4687 191.292 15.7937C191.16 15.1187 190.898 14.5787 190.505 14.0387C190.112 13.4987 189.587 13.0937 189.063 12.8237C188.407 12.5537 187.752 12.4187 186.965 12.4187C186.178 12.4187 185.523 12.5537 184.867 12.8237C184.212 13.0937 183.818 13.6337 183.425 14.0387C183.032 14.4437 182.769 15.1187 182.638 15.7937C182.507 16.4687 182.376 17.0087 182.376 17.6837C182.376 18.3587 182.507 18.8987 182.638 19.5737C182.769 20.2487 183.032 20.7887 183.425 21.3287C183.818 21.8687 184.343 22.2737 184.867 22.5437C185.523 22.8137 186.178 22.9487 186.965 22.9487Z" fill="#CE203E"/>
<path d="M198.896 9.31445H202.96V19.4395C202.96 20.5195 203.222 21.3295 203.747 21.8695C204.271 22.4095 205.058 22.6795 205.976 22.6795C206.5 22.6795 207.024 22.5445 207.549 22.4095C208.073 22.1395 208.467 21.8695 208.86 21.4645C209.253 21.0595 209.516 20.6545 209.647 20.1145C209.909 19.5745 209.909 19.0345 209.909 18.3595V9.31445H213.973V26.0545H210.04L209.909 24.1645C209.647 24.4345 209.516 24.7045 209.122 24.9745C208.86 25.2445 208.467 25.5145 208.073 25.6495C207.68 25.9195 207.287 26.0545 206.762 26.1895C206.238 26.3245 205.713 26.4595 205.058 26.4595C203.091 26.4595 201.518 25.7845 200.469 24.5695C199.42 23.3545 198.896 21.5995 198.896 19.4395V9.31445Z" fill="#CE203E"/>
<path d="M218.169 9.3132H222.102L222.233 11.2032C222.496 10.9332 222.627 10.6632 223.02 10.3932C223.282 10.1232 223.676 9.8532 224.2 9.7182C224.593 9.4482 225.118 9.3132 225.642 9.1782C226.167 9.0432 226.822 8.9082 227.478 8.9082C228.789 8.9082 229.838 9.1782 230.756 9.7182C231.673 10.2582 232.46 10.9332 232.985 11.7432C233.64 12.5532 234.033 13.4982 234.296 14.5782C234.558 15.6582 234.689 16.7382 234.689 17.8182C234.689 19.1682 234.558 20.2482 234.165 21.1932C233.771 22.1382 233.378 22.9482 232.722 23.6232C231.805 24.8382 230.756 25.5132 229.707 26.0532C228.527 26.4582 227.478 26.7282 226.298 26.7282C225.773 26.7282 225.38 26.7282 224.987 26.5932C224.593 26.5932 224.2 26.4582 223.938 26.3232C223.676 26.1882 223.282 26.1882 223.02 26.0532C222.758 25.9182 222.496 25.7832 222.233 25.7832V33.2082H218.169V9.3132ZM222.233 21.8682C223.02 22.5432 224.2 22.9482 225.905 22.9482C226.691 22.9482 227.347 22.8132 227.871 22.5432C228.396 22.2732 228.92 21.8682 229.313 21.3282C229.707 20.7882 229.969 20.2482 230.231 19.7082C230.493 19.0332 230.493 18.4932 230.493 17.8182C230.493 17.1432 230.362 16.4682 230.231 15.7932C230.1 15.1182 229.838 14.5782 229.445 14.1732C229.051 13.7682 228.658 13.3632 228.133 13.0932C227.609 12.8232 226.953 12.6882 226.167 12.6882C225.511 12.6882 224.987 12.8232 224.462 13.0932C223.938 13.3632 223.545 13.7682 223.151 14.1732C222.758 14.5782 222.496 15.1182 222.365 15.5232C222.102 16.0632 222.102 16.4682 222.102 17.0082V21.8682H222.233Z" fill="#CE203E"/>
<path d="M7.99819 16.3342L1.31152 19.9792H2.62263H6.68708L7.99819 16.3342Z" fill="#CE203E"/>
<path d="M8.1289 48.6008C7.21112 48.3308 6.55556 47.9258 6.16223 47.3858L6.68668 46.3058C7.21112 46.8458 7.73556 47.1158 8.52223 47.5208C9.3089 47.7908 10.0956 47.9258 10.8822 47.9258C12.0622 47.9258 12.8489 47.6558 13.5045 47.2508C14.0289 46.8458 14.4222 46.3058 14.4222 45.4958C14.4222 44.9558 14.2911 44.5508 13.8978 44.2808C13.6356 44.0108 13.2422 43.7408 12.7178 43.6058C12.3245 43.4708 11.6689 43.2008 10.8822 43.0658C9.96445 42.7958 9.17779 42.5258 8.52223 42.3908C7.99779 42.1208 7.47334 41.8508 7.08001 41.3108C6.68668 40.7708 6.42445 40.2308 6.42445 39.4208C6.42445 38.7458 6.55557 38.2058 6.9489 37.5308C7.34223 36.9908 7.86668 36.5858 8.52223 36.1808C9.17779 35.9108 10.0956 35.6408 11.1445 35.6408C11.9311 35.6408 12.5867 35.7758 13.2422 35.9108C13.8978 36.1808 14.5533 36.4508 15.0778 36.7208L14.6845 37.8008C14.16 37.3958 13.6356 37.1258 12.98 36.9908C12.3245 36.8558 11.8 36.7208 11.1445 36.7208C9.96445 36.7208 9.17779 36.9908 8.65334 37.3958C8.1289 37.8008 7.73557 38.4758 7.73557 39.1508C7.73557 39.6908 7.86668 40.0958 8.26001 40.3658C8.52223 40.6358 8.91556 40.9058 9.44001 41.0408C9.96445 41.1758 10.4889 41.5808 11.2756 41.8508C12.1933 42.1208 12.98 42.3908 13.5045 42.5258C14.0289 42.6608 14.5533 43.0658 14.9467 43.6058C15.34 44.0108 15.6022 44.6858 15.6022 45.4958C15.6022 46.1708 15.4711 46.7108 15.0778 47.3858C14.6845 47.9258 14.16 48.3308 13.5045 48.7358C12.7178 49.0058 11.9311 49.2758 10.8822 49.2758C9.96445 49.1408 9.04668 49.0058 8.1289 48.6008Z" fill="black"/>
<path d="M18.3551 36.585C18.224 36.45 18.0929 36.18 18.0929 35.91C18.0929 35.64 18.224 35.505 18.3551 35.235C18.4862 35.1 18.7485 34.965 19.0107 34.965C19.2729 34.965 19.5351 35.1 19.6662 35.235C19.7973 35.37 19.9285 35.64 19.9285 35.91C19.9285 36.18 19.7973 36.45 19.6662 36.585C19.5351 36.72 19.2729 36.855 19.0107 36.855C18.7485 36.855 18.4862 36.855 18.3551 36.585ZM18.3551 39.015H19.6662V49.005H18.3551V39.015Z" fill="black"/>
<path d="M31.0738 40.0958C31.7294 40.7708 32.1227 41.8508 32.1227 43.2008V49.0058H30.8116V43.3358C30.8116 42.2558 30.5494 41.5808 30.0249 40.9058C29.5005 40.2308 28.8449 40.0958 27.9272 40.0958C26.8783 40.0958 26.0916 40.3658 25.436 41.0408C24.7805 41.7158 24.5183 42.5258 24.5183 43.7408V49.0058H23.2072V39.0158H24.5183V40.9058C24.9116 40.3658 25.3049 39.8258 25.9605 39.5558C26.616 39.2858 27.2716 39.0158 28.1894 39.0158C29.3694 39.0158 30.4183 39.2858 31.0738 40.0958Z" fill="black"/>
<path d="M37.2354 48.4656C36.4487 48.0606 35.9243 47.3856 35.3998 46.7106C35.0065 45.9006 34.7443 45.0906 34.7443 44.1456C34.7443 43.2006 35.0065 42.2556 35.3998 41.5806C35.7932 40.7706 36.4487 40.2306 37.2354 39.8256C38.022 39.4206 38.8087 39.1506 39.8576 39.1506C40.6443 39.1506 41.4309 39.2856 42.0865 39.6906C42.742 39.9606 43.2665 40.5006 43.6598 41.1756L42.742 41.8506C42.4798 41.3106 41.9554 41.0406 41.562 40.7706C41.0376 40.5006 40.5132 40.3656 39.9887 40.3656C39.3332 40.3656 38.6776 40.5006 38.1532 40.9056C37.6287 41.1756 37.1043 41.7156 36.842 42.2556C36.5798 42.7956 36.3176 43.4706 36.3176 44.2806C36.3176 45.0906 36.4487 45.7656 36.842 46.3056C37.1043 46.8456 37.6287 47.3856 38.1532 47.6556C38.6776 47.9256 39.3332 48.1956 39.9887 48.1956C40.5132 48.1956 41.0376 48.0606 41.562 47.7906C42.0865 47.5206 42.4798 47.2506 42.742 46.7106L43.6598 47.3856C43.2665 48.0606 42.742 48.4656 42.0865 48.8706C41.4309 49.2756 40.6443 49.4106 39.8576 49.4106C38.8087 49.1406 37.8909 48.8706 37.2354 48.4656Z" fill="black"/>
<path d="M54.2797 44.4156H46.1508C46.2819 45.4956 46.6753 46.3056 47.3308 46.9806C47.9864 47.6556 48.9042 47.9256 49.953 47.9256C50.6086 47.9256 51.133 47.7906 51.6575 47.6556C52.1819 47.5206 52.5753 47.1156 52.9686 46.7106L53.7553 47.5206C53.3619 48.0606 52.8375 48.4656 52.1819 48.7356C51.5264 49.0056 50.8708 49.1406 50.0842 49.1406C49.0353 49.1406 48.2486 48.8706 47.4619 48.4656C46.6753 48.0606 46.1508 47.3856 45.6264 46.7106C45.233 45.9006 44.9708 45.0906 44.9708 44.1456C44.9708 43.2006 45.233 42.2556 45.6264 41.5806C46.0197 40.7706 46.5442 40.2306 47.3308 39.8256C47.9864 39.4206 48.9042 39.1506 49.6908 39.1506C50.6086 39.1506 51.3953 39.4206 52.0508 39.8256C52.7064 40.2306 53.3619 40.9056 53.7553 41.5806C54.1486 42.3906 54.4108 43.2006 54.4108 44.1456L54.2797 44.4156ZM47.3308 41.0406C46.6753 41.7156 46.2819 42.3906 46.2819 43.4706H53.0997C52.9686 42.5256 52.7064 41.7156 52.0508 41.0406C51.3953 40.3656 50.6086 40.0956 49.6908 40.0956C48.7731 40.0956 47.9864 40.5006 47.3308 41.0406Z" fill="black"/>
<path d="M69.7507 47.7908V49.0058H60.704V48.0608L66.0796 42.6608C66.7351 41.9858 67.2596 41.4458 67.3907 40.9058C67.6529 40.3658 67.784 39.9608 67.784 39.4208C67.784 38.6108 67.5218 38.0708 66.9973 37.5308C66.4729 37.1258 65.6862 36.8558 64.7684 36.8558C63.3262 36.8558 62.1462 37.3958 61.2284 38.3408L60.3107 37.5308C60.8351 36.9908 61.4907 36.4508 62.2773 36.1808C63.064 35.9108 63.9818 35.6408 64.8996 35.6408C66.2107 35.6408 67.2596 35.9108 68.0462 36.5858C68.8329 37.2608 69.2262 38.0708 69.2262 39.1508C69.2262 39.8258 69.0951 40.5008 68.8329 41.1758C68.5707 41.8508 68.0462 42.5258 67.1284 43.3358L62.8018 47.7908H69.7507Z" fill="black"/>
<path d="M73.8154 48.3308C73.0288 47.7908 72.3732 46.9808 71.9799 46.0358C71.5866 44.9558 71.3243 43.8758 71.3243 42.3908C71.3243 41.0408 71.5866 39.8258 71.9799 38.7458C72.3732 37.6658 73.0288 36.9908 73.8154 36.4508C74.6021 35.9108 75.5199 35.6408 76.4377 35.6408C77.3554 35.6408 78.2732 35.9108 79.0599 36.4508C79.8466 36.9908 80.5021 37.8008 80.8955 38.7458C81.2888 39.6908 81.551 40.9058 81.551 42.3908C81.551 43.7408 81.2888 44.9558 80.8955 46.0358C80.5021 47.1158 79.8466 47.7908 79.0599 48.3308C78.2732 48.8708 77.3554 49.1408 76.4377 49.1408C75.5199 49.1408 74.6021 48.8708 73.8154 48.3308ZM78.4043 47.2508C78.9288 46.8458 79.4532 46.1708 79.7154 45.3608C79.9777 44.5508 80.2399 43.6058 80.2399 42.3908C80.2399 41.1758 80.1088 40.2308 79.7154 39.4208C79.4532 38.6108 78.9288 37.9358 78.4043 37.5308C77.8799 37.1258 77.2243 36.8558 76.4377 36.8558C75.651 36.8558 74.9954 37.1258 74.471 37.5308C73.9466 37.9358 73.4221 38.6108 73.1599 39.4208C72.8977 40.2308 72.6355 41.1758 72.6355 42.3908C72.6355 43.6058 72.7666 44.5508 73.1599 45.3608C73.4221 46.1708 73.9466 46.8458 74.471 47.2508C74.9954 47.6558 75.651 47.9258 76.4377 47.9258C77.2243 47.9258 77.8799 47.6558 78.4043 47.2508Z" fill="black"/>
<path d="M85.878 48.3308C85.0913 47.7908 84.4357 46.9808 84.0424 46.0358C83.6491 44.9558 83.3868 43.8758 83.3868 42.3908C83.3868 41.0408 83.6491 39.8258 84.0424 38.7458C84.4357 37.6658 85.0913 36.9908 85.878 36.4508C86.6646 35.9108 87.5824 35.6408 88.5002 35.6408C89.418 35.6408 90.3357 35.9108 91.1224 36.4508C91.9091 36.9908 92.5646 37.8008 92.958 38.7458C93.3513 39.6908 93.6135 40.9058 93.6135 42.3908C93.6135 43.7408 93.3513 44.9558 92.958 46.0358C92.5646 47.1158 91.9091 47.7908 91.1224 48.3308C90.3357 48.8708 89.418 49.1408 88.5002 49.1408C87.5824 49.1408 86.6646 48.8708 85.878 48.3308ZM90.598 47.2508C91.1224 46.8458 91.6468 46.1708 91.9091 45.3608C92.1713 44.5508 92.4335 43.6058 92.4335 42.3908C92.4335 41.1758 92.3024 40.2308 91.9091 39.4208C91.6468 38.6108 91.1224 37.9358 90.598 37.5308C90.0735 37.1258 89.418 36.8558 88.6313 36.8558C87.8446 36.8558 87.1891 37.1258 86.6646 37.5308C86.1402 37.9358 85.6157 38.6108 85.3535 39.4208C85.0913 40.2308 84.8291 41.1758 84.8291 42.3908C84.8291 43.6058 84.9602 44.5508 85.3535 45.3608C85.6157 46.1708 86.1402 46.8458 86.6646 47.2508C87.1891 47.6558 87.8446 47.9258 88.6313 47.9258C89.418 47.9258 89.9424 47.6558 90.598 47.2508Z" fill="black"/>
<path d="M103.578 37.3958C104.496 38.6108 104.889 40.2308 104.889 42.2558C104.889 43.7408 104.627 44.9558 104.102 46.0358C103.578 47.1158 102.922 47.7908 102.005 48.3308C101.087 48.8708 100.038 49.1408 98.858 49.1408C97.5469 49.1408 96.6291 48.8708 95.8425 48.4658L96.3669 47.3858C97.0225 47.7908 97.8091 48.0608 98.858 48.0608C100.3 48.0608 101.349 47.6558 102.136 46.7108C102.922 45.7658 103.316 44.4158 103.316 42.6608C103.316 42.3908 103.316 41.9858 103.316 41.5808C103.054 42.2558 102.529 42.7958 101.742 43.2008C101.087 43.6058 100.3 43.7408 99.3825 43.7408C98.5958 43.7408 97.8091 43.6058 97.1536 43.2008C96.498 42.9308 95.9736 42.3908 95.5802 41.8508C95.1869 41.3108 95.0558 40.5008 95.0558 39.8258C95.0558 39.0158 95.1869 38.3408 95.5802 37.6658C95.9736 36.9908 96.498 36.5858 97.1536 36.1808C97.8091 35.9108 98.5958 35.6408 99.3825 35.6408C101.349 35.6408 102.66 36.1808 103.578 37.3958ZM101.48 42.1208C102.005 41.8508 102.398 41.5808 102.66 41.0408C102.922 40.5008 103.054 40.0958 103.054 39.5558C103.054 39.0158 102.922 38.6108 102.66 38.2058C102.398 37.8008 102.005 37.3958 101.48 37.1258C100.956 36.8558 100.3 36.7208 99.6447 36.7208C98.7269 36.7208 97.9402 36.9908 97.4158 37.5308C96.8913 38.0708 96.498 38.7458 96.498 39.5558C96.498 40.3658 96.7602 41.1758 97.4158 41.5808C97.9402 42.1208 98.7269 42.3908 99.7758 42.3908C100.431 42.5258 100.956 42.3908 101.48 42.1208Z" fill="black"/>
<path d="M117.607 48.4657C117.344 48.7357 117.082 48.8707 116.689 49.0057C116.296 49.1407 115.902 49.1407 115.509 49.1407C114.591 49.1407 113.936 48.8707 113.411 48.3307C112.887 47.7907 112.624 47.1157 112.624 46.1707V40.0957H110.92V39.0157H112.624V36.8557H113.936V39.0157H116.82V40.0957H113.936V46.0357C113.936 46.5757 114.067 47.1157 114.329 47.3857C114.591 47.6557 114.984 47.7907 115.509 47.7907C115.771 47.7907 116.033 47.7907 116.296 47.6557C116.558 47.5207 116.82 47.3857 116.951 47.2507L117.607 48.4657Z" fill="black"/>
<path d="M121.015 48.4656C120.229 48.0606 119.704 47.3856 119.311 46.7106C118.918 45.9006 118.655 45.0906 118.655 44.1456C118.655 43.2006 118.918 42.2556 119.311 41.5806C119.704 40.7706 120.36 40.2306 121.015 39.8256C121.802 39.4206 122.589 39.1506 123.507 39.1506C124.424 39.1506 125.211 39.4206 125.998 39.8256C126.784 40.2306 127.309 40.9056 127.702 41.5806C128.095 42.3906 128.358 43.2006 128.358 44.1456C128.358 45.0906 128.095 46.0356 127.702 46.7106C127.309 47.5206 126.653 48.0606 125.998 48.4656C125.211 48.8706 124.424 49.1406 123.507 49.1406C122.589 49.1406 121.802 48.8706 121.015 48.4656ZM125.342 47.3856C125.867 47.1156 126.26 46.5756 126.653 46.0356C126.915 45.4956 127.047 44.8206 127.047 44.0106C127.047 43.2006 126.915 42.5256 126.653 41.9856C126.391 41.4456 125.867 40.9056 125.342 40.6356C124.818 40.3656 124.162 40.0956 123.507 40.0956C122.851 40.0956 122.195 40.2306 121.671 40.6356C121.147 40.9056 120.753 41.4456 120.36 41.9856C120.098 42.5256 119.835 43.2006 119.835 44.0106C119.835 44.8206 119.967 45.4956 120.36 46.0356C120.622 46.5756 121.147 47.1156 121.671 47.3856C122.195 47.6556 122.851 47.9256 123.507 47.9256C124.162 47.9256 124.818 47.7906 125.342 47.3856Z" fill="black"/>
<path d="M140.027 39.0158V47.7908C140.027 49.5458 139.633 50.7608 138.847 51.5708C138.06 52.3808 136.88 52.7858 135.176 52.7858C134.258 52.7858 133.471 52.6508 132.685 52.3808C131.898 52.1108 131.242 51.7058 130.718 51.3008L131.373 50.2208C131.898 50.6258 132.422 51.0308 133.078 51.1658C133.733 51.4358 134.389 51.5708 135.176 51.5708C136.356 51.5708 137.273 51.3008 137.929 50.6258C138.585 49.9508 138.847 49.1408 138.847 47.9258V46.7108C138.453 47.3858 137.929 47.7908 137.273 48.1958C136.618 48.4658 135.831 48.7358 135.045 48.7358C134.127 48.7358 133.34 48.4658 132.553 48.0608C131.767 47.6558 131.242 47.1158 130.849 46.3058C130.456 45.4958 130.193 44.6858 130.193 43.7408C130.193 42.7958 130.456 41.9858 130.849 41.3108C131.242 40.6358 131.898 39.9608 132.553 39.5558C133.34 39.1508 134.127 39.0158 135.045 39.0158C135.831 39.0158 136.618 39.1508 137.273 39.5558C137.929 39.9608 138.453 40.3658 138.847 41.0408V39.1508H140.027V39.0158ZM137.011 46.9808C137.536 46.7108 138.06 46.3058 138.322 45.6308C138.585 44.9558 138.847 44.4158 138.847 43.7408C138.847 43.0658 138.716 42.3908 138.322 41.8508C137.929 41.3108 137.536 40.9058 137.011 40.5008C136.487 40.0958 135.831 40.0958 135.176 40.0958C134.52 40.0958 133.865 40.2308 133.34 40.5008C132.816 40.7708 132.291 41.1758 132.029 41.8508C131.767 42.3908 131.505 43.0658 131.505 43.7408C131.505 44.4158 131.636 45.0908 132.029 45.6308C132.291 46.1708 132.816 46.5758 133.34 46.9808C133.865 47.3858 134.52 47.3858 135.176 47.3858C135.831 47.3858 136.356 47.2508 137.011 46.9808Z" fill="black"/>
<path d="M152.089 44.4156H143.96C144.092 45.4956 144.485 46.3056 145.14 46.9806C145.796 47.6556 146.714 47.9256 147.763 47.9256C148.418 47.9256 148.943 47.7906 149.467 47.6556C149.992 47.5206 150.385 47.1156 150.778 46.7106L151.565 47.5206C151.172 48.0606 150.647 48.4656 149.992 48.7356C149.336 49.0056 148.68 49.1406 147.894 49.1406C146.845 49.1406 146.058 48.8706 145.272 48.4656C144.485 48.0606 143.96 47.3856 143.436 46.7106C143.043 45.9006 142.78 45.0906 142.78 44.1456C142.78 43.2006 143.043 42.2556 143.436 41.5806C143.829 40.7706 144.354 40.2306 145.14 39.8256C145.796 39.4206 146.714 39.1506 147.5 39.1506C148.418 39.1506 149.205 39.4206 149.86 39.8256C150.516 40.2306 151.172 40.9056 151.565 41.5806C151.958 42.3906 152.22 43.2006 152.22 44.1456L152.089 44.4156ZM145.009 41.0406C144.354 41.7156 143.96 42.3906 143.96 43.4706H150.778C150.647 42.5256 150.385 41.7156 149.729 41.0406C149.074 40.3656 148.287 40.0956 147.369 40.0956C146.452 40.0956 145.665 40.5006 145.009 41.0406Z" fill="black"/>
<path d="M159.824 48.4657C159.562 48.7357 159.3 48.8707 158.907 49.0057C158.513 49.1407 158.12 49.1407 157.727 49.1407C156.809 49.1407 156.153 48.8707 155.629 48.3307C155.104 47.7907 154.842 47.1157 154.842 46.1707V40.0957H153.138V39.0157H154.842V36.8557H156.153V39.0157H159.038V40.0957H156.153V46.0357C156.153 46.5757 156.284 47.1157 156.547 47.3857C156.809 47.6557 157.202 47.7907 157.727 47.7907C157.989 47.7907 158.251 47.7907 158.513 47.6557C158.776 47.5207 159.038 47.3857 159.169 47.2507L159.824 48.4657Z" fill="black"/>
<path d="M170.051 40.095C170.707 40.77 171.1 41.85 171.1 43.2V49.005H169.789V43.335C169.789 42.255 169.527 41.58 169.002 40.905C168.478 40.23 167.822 40.095 166.904 40.095C165.856 40.095 165.069 40.365 164.413 41.04C163.758 41.715 163.496 42.525 163.496 43.74V49.005H162.184V34.965H163.496V40.77C163.889 40.23 164.282 39.69 164.938 39.42C165.593 39.15 166.249 39.015 167.036 39.015C168.347 39.015 169.264 39.285 170.051 40.095Z" fill="black"/>
<path d="M183.031 44.4156H174.902C175.033 45.4956 175.426 46.3056 176.082 46.9806C176.737 47.6556 177.655 47.9256 178.704 47.9256C179.36 47.9256 179.884 47.7906 180.408 47.6556C180.933 47.5206 181.326 47.1156 181.72 46.7106L182.506 47.5206C182.113 48.0606 181.588 48.4656 180.933 48.7356C180.277 49.0056 179.622 49.1406 178.835 49.1406C177.786 49.1406 177 48.8706 176.213 48.4656C175.426 48.0606 174.902 47.3856 174.377 46.7106C173.984 45.9006 173.722 45.0906 173.722 44.1456C173.722 43.2006 173.984 42.2556 174.377 41.5806C174.771 40.7706 175.295 40.2306 176.082 39.8256C176.737 39.4206 177.655 39.1506 178.442 39.1506C179.36 39.1506 180.146 39.4206 180.802 39.8256C181.457 40.2306 182.113 40.9056 182.506 41.5806C182.9 42.3906 183.162 43.2006 183.162 44.1456L183.031 44.4156ZM176.082 41.0406C175.426 41.7156 175.033 42.3906 175.033 43.4706H181.851C181.72 42.5256 181.457 41.7156 180.802 41.0406C180.146 40.3656 179.36 40.0956 178.442 40.0956C177.524 40.0956 176.737 40.5006 176.082 41.0406Z" fill="black"/>
<path d="M188.407 39.5558C189.062 39.1508 189.718 39.0158 190.635 39.0158V40.3658H190.373C189.324 40.3658 188.538 40.6358 188.013 41.3108C187.489 41.9858 187.095 42.7958 187.095 44.0108V49.1408H185.784V39.1508H187.095V41.0408C187.358 40.3658 187.751 39.8258 188.407 39.5558Z" fill="black"/>
</svg>
