<svg width="280" height="54" viewBox="0 0 280 54" fill="none" xmlns="http://www.w3.org/2000/svg">
<g clip-path="url(#clip0_1_477)">
<path fill-rule="evenodd" clip-rule="evenodd" d="M18.3569 36.864C18.8598 38.4676 19.4777 39.564 20.23 40.1539C21.0772 40.8535 22.1329 41.2028 23.4017 41.2028C24.842 41.2028 25.9974 40.7864 26.8623 39.9428C27.2067 39.5926 27.4963 39.1565 27.7272 38.6329C27.9533 38.1199 28.28 37.17 28.7064 35.7848L34.2662 16.9675L37.2955 35.8036C37.5675 37.5505 37.9657 38.781 38.504 39.5035C39.3279 40.6358 40.5139 41.202 42.0491 41.202C43.1224 41.202 44.0944 40.8526 44.9601 40.1531C46.0157 39.249 46.5436 38.0806 46.5436 36.6325C46.5436 36.1391 46.4534 35.3504 46.2579 34.263L41.2131 4.80436C41.0047 3.51491 40.3659 2.412 39.3102 1.48909C38.1371 0.518727 36.791 0.0302727 35.2736 0.0302727C33.946 0.0302727 32.7777 0.409909 31.7631 1.17082C30.6077 2.02664 29.7894 3.23836 29.3099 4.80518L23.2287 24.5324L16.6013 3.924C16.2352 2.77364 15.5947 1.85155 14.6702 1.17C13.6323 0.391909 12.4005 0 10.9803 0C9.2931 0 7.85931 0.518727 6.68621 1.55455C5.78425 2.35064 5.1969 3.58036 4.92655 5.24373L0.259885 34.3448C0.0877011 35.3815 0 36.1342 0 36.6046C0 38.1117 0.538276 39.2932 1.61241 40.185C2.45402 40.8616 3.40828 41.2036 4.4631 41.2036C6.02161 41.2036 7.19471 40.6375 7.98322 39.5051C8.49977 38.7695 8.8908 37.5267 9.16356 35.8053L12.1028 16.9691L18.3569 36.864ZM51.3913 14.4188C48.8133 17.2325 47.5276 20.9111 47.5276 25.4602C47.5276 29.8661 48.8141 33.5127 51.3913 36.3952C52.7365 37.9015 54.3498 39.0854 56.2293 39.9232C58.1137 40.7847 60.0576 41.2028 62.053 41.2028C63.8754 41.2028 65.6761 40.8289 67.4422 40.0934C69.4939 39.2498 71.2463 38.0217 72.689 36.3944C75.2621 33.5119 76.5526 29.8415 76.5526 25.4045C76.5526 20.9569 75.2621 17.2874 72.689 14.4172C71.3614 12.9469 69.7602 11.7851 67.8759 10.9178C65.9915 10.0448 64.1111 9.60709 62.2268 9.60709C57.9415 9.60873 54.3264 11.2115 51.3913 14.4188ZM68.0231 25.4373C68.0231 23.031 67.3472 21.1214 66.0019 19.6928C64.8474 18.4443 63.4659 17.8159 61.8478 17.8167C60.1581 17.8167 58.7292 18.6431 57.5561 20.3073C56.5954 21.6565 56.1159 23.3501 56.1159 25.4054C56.1159 27.4549 56.5954 29.1723 57.5561 30.5354C58.7115 32.175 60.159 32.9948 61.9122 32.9948C63.4659 32.9948 64.8288 32.3689 66.0019 31.1261C67.348 29.7155 68.0231 27.8174 68.0231 25.4373ZM87.6199 10.7526C86.8853 10.1078 85.9833 9.78874 84.9108 9.78874C83.6186 9.78874 82.5525 10.2584 81.7101 11.1927C80.8999 12.0911 80.5008 13.3511 80.5008 14.9727V35.1344C80.5008 36.81 80.6907 38.0504 81.0761 38.8342C81.4019 39.474 81.9145 39.9927 82.6145 40.4149C83.3137 40.824 84.0563 41.0236 84.8223 41.0236C85.5923 41.0236 86.3245 40.824 87.0245 40.4149C87.7245 39.9927 88.2418 39.4748 88.5685 38.8342C88.9531 38.0283 89.1494 36.7977 89.1494 35.1344V22.4215C89.1494 21.1148 89.5396 19.9571 90.329 18.9573C91.2655 17.7873 92.5046 17.2023 94.0406 17.2023C95.5226 17.2023 96.7319 17.7464 97.679 18.8419C98.5029 19.8 98.918 21.1214 98.918 22.8027V35.1344C98.918 36.81 99.1071 38.0504 99.4885 38.8342C99.8192 39.474 100.332 39.9927 101.037 40.4149C101.737 40.824 102.469 41.0236 103.235 41.0236C104.01 41.0236 104.745 40.8207 105.459 40.3977C106.172 39.9772 106.678 39.4617 106.986 38.8342C107.37 38.0504 107.56 36.8092 107.56 35.1344V20.7172C107.56 18.8836 107.4 17.397 107.074 16.2679C106.671 14.8165 105.782 13.4894 104.419 12.2785C102.444 10.5006 99.9439 9.60874 96.9267 9.60874C95.196 9.60874 93.6495 9.89756 92.2857 10.458C91.284 10.8908 90.164 11.6935 88.9129 12.8635C88.5275 11.8686 88.0994 11.1633 87.6199 10.7526ZM140.356 24.8817C140.356 27.1833 139.1 28.3443 136.581 28.3443H120.447C121.077 30.0944 121.956 31.4051 123.082 32.2544C124.208 33.0955 125.615 33.5242 127.306 33.5242C128.532 33.5242 129.77 33.2722 131.027 32.7543C131.353 32.6209 132.492 32.0613 134.454 31.0958C135.047 30.8062 135.711 30.645 136.441 30.645C137.441 30.645 138.283 31.1204 138.977 32.0261C139.557 32.7715 139.843 33.5185 139.843 34.2655C139.843 35.9296 138.68 37.4261 136.357 38.7753C133.57 40.3912 130.405 41.2045 126.872 41.2045C121.586 41.2045 117.429 39.3308 114.394 35.6048C112.202 32.9155 111.111 29.6632 111.111 25.8824C111.111 20.7368 112.729 16.6361 115.977 13.5679C118.786 10.9342 122.106 9.60874 125.953 9.60874C129.313 9.60874 132.3 10.6634 134.913 12.7735C137.428 14.8271 139.099 17.613 139.929 21.132C140.22 22.3748 140.356 23.6283 140.356 24.8817ZM120.132 22.3265C120.683 20.6329 121.329 19.3909 122.059 18.6071C123.197 17.4142 124.566 16.8235 126.179 16.8235C128.064 16.8235 129.522 17.5901 130.565 19.1381C131.044 19.8368 131.466 20.9045 131.828 22.3265H120.132ZM148.056 10.6945C148.685 11.2844 149.313 12.3562 149.93 13.9173L155.002 26.9656L160.072 14.0073C160.688 12.4037 161.323 11.3122 161.98 10.7288C162.709 10.0776 163.617 9.75683 164.717 9.75683C165.808 9.75683 166.767 10.1078 167.593 10.8131C168.61 11.6927 169.123 12.7653 169.123 14.0384C169.123 14.8345 168.826 15.9537 168.227 17.3782L155.033 49.3724C154.57 50.5023 154.179 51.2828 153.849 51.7516C153.024 52.8946 151.898 53.451 150.475 53.451C149.401 53.451 148.447 53.0959 147.624 52.3726C146.64 51.516 146.153 50.4777 146.153 49.2635C146.153 48.4658 146.45 47.3629 147.048 45.9532L150.451 37.8344L141.892 17.2563C141.311 15.8523 141.021 14.7608 141.021 13.977C141.021 12.5493 141.648 11.3981 142.894 10.5186C143.627 10.0072 144.452 9.75765 145.377 9.75765C146.45 9.75765 147.344 10.0735 148.056 10.6945Z" fill="#D3D3D3"/>
<path fill-rule="evenodd" clip-rule="evenodd" d="M208.103 39.5056C208.943 40.6379 210.111 41.2041 211.651 41.2041C212.729 41.2041 213.706 40.8548 214.562 40.1568C215.618 39.2519 216.155 38.0844 216.155 36.6362C216.155 36.1428 216.062 35.3533 215.861 34.2668L210.816 4.80563C210.613 3.51617 209.973 2.41326 208.917 1.49035C207.746 0.520803 206.394 0.0315298 204.888 0.0315298C203.558 0.0315298 202.376 0.411985 201.355 1.17208C200.206 2.0279 199.394 3.23963 198.909 4.80644L192.833 24.5337L186.205 3.92608C185.836 2.77572 185.191 1.85363 184.267 1.17208C183.236 0.393985 182.013 0.0020752 180.581 0.0020752C178.889 0.0020752 177.462 0.519985 176.292 1.55662C175.388 2.3519 174.802 3.58244 174.529 5.24499L169.862 34.3461C169.691 35.3828 169.604 36.1355 169.604 36.6059C169.604 38.113 170.142 39.2945 171.22 40.1863C172.063 40.8629 173.011 41.2049 174.07 41.2049C175.631 41.2049 176.799 40.6388 177.592 39.5064C178.104 38.7708 178.5 37.528 178.767 35.8066L181.712 16.9704L187.965 36.8661C188.464 38.4689 189.087 39.5653 189.843 40.156C190.685 40.8556 191.74 41.2049 193.01 41.2049C194.446 41.2049 195.594 40.7885 196.46 39.9449C196.816 39.5948 197.099 39.1587 197.336 38.635C197.563 38.122 197.883 37.1721 198.308 35.7869L203.874 16.9696L206.904 35.8058C207.166 37.5518 207.58 38.7823 208.103 39.5056ZM275.298 41.0241C276.057 41.0241 276.799 40.8212 277.511 40.3982C278.222 39.9785 278.738 39.463 279.044 38.8338C279.424 38.05 279.615 36.8097 279.615 35.134V20.7168C279.615 18.8833 279.454 17.3958 279.123 16.2675C278.717 14.8161 277.831 13.4898 276.468 12.2781C274.487 10.5002 271.999 9.60835 268.974 9.60835C267.244 9.60835 265.697 9.89717 264.334 10.4576C263.338 10.8904 262.217 11.6931 260.962 12.8631C260.58 11.869 260.149 11.1637 259.674 10.753C258.937 10.1083 258.039 9.78917 256.96 9.78917C255.669 9.78917 254.607 10.2588 253.754 11.1932C252.957 12.0915 252.555 13.3515 252.555 14.9732V35.1348C252.555 36.8097 252.735 38.0508 253.125 38.8347C253.447 39.4753 253.963 39.9932 254.668 40.4154C255.374 40.8245 256.102 41.0241 256.871 41.0241C257.642 41.0241 258.379 40.8245 259.072 40.4154C259.779 39.9932 260.292 39.4745 260.616 38.8347C261.008 38.0288 261.198 36.7982 261.198 35.1348V22.4219C261.198 21.1153 261.584 19.9576 262.378 18.9578C263.314 17.7878 264.553 17.2028 266.105 17.2028C267.575 17.2028 268.786 17.7468 269.722 18.8424C270.552 19.8005 270.972 21.1218 270.972 22.8032V35.1348C270.972 36.8097 271.153 38.0508 271.553 38.8347C271.869 39.4753 272.382 39.9932 273.087 40.4154C273.78 40.8245 274.517 41.0241 275.298 41.0241ZM238.769 37.5338C239.635 39.8713 241.082 41.0241 243.098 41.0241C244.316 41.0241 245.319 40.5839 246.123 39.715C247.013 38.7528 247.451 37.4618 247.451 35.8344V14.2982C247.451 12.9727 247.013 11.8763 246.123 11.0189C245.259 10.1966 244.258 9.78997 243.156 9.78997C242.149 9.78997 241.263 10.0796 240.472 10.6638C239.888 11.1171 239.344 11.9181 238.869 13.0692C237.897 12.0727 237.104 11.3682 236.499 10.9583C235.066 10.0608 233.422 9.60916 231.513 9.60916C228.112 9.60916 225.085 10.9412 222.428 13.5986C219.406 16.648 217.904 20.5319 217.904 25.2618C217.904 30.5727 219.612 34.7609 223.039 37.8357C225.529 40.0881 228.39 41.2041 231.591 41.2041C233.404 41.2041 234.928 40.8245 236.185 40.0652C236.932 39.5939 237.786 38.752 238.769 37.5338ZM236.724 19.7228C235.575 18.4497 234.152 17.8164 232.469 17.8164C230.714 17.8164 229.275 18.5225 228.169 19.9273C227.093 21.3378 226.547 23.1632 226.547 25.4058C226.547 27.6362 227.093 29.4558 228.169 30.8541C229.275 32.2884 230.751 32.9945 232.575 32.9945C234.177 32.9945 235.54 32.3628 236.668 31.0955C237.944 29.6628 238.574 27.763 238.574 25.3764C238.574 22.9538 237.957 21.067 236.724 19.7228Z" fill="#D3D3D3"/>
</g>
<defs>
<clipPath id="clip0_1_477">
<rect width="280" height="54" fill="white"/>
</clipPath>
</defs>
</svg>
