<svg width="142" height="26" viewBox="0 0 142 26" fill="none" xmlns="http://www.w3.org/2000/svg">
<g clip-path="url(#clip0_1_539)">
<mask id="mask0_1_539" style="mask-type:luminance" maskUnits="userSpaceOnUse" x="0" y="0" width="142" height="26">
<path d="M142 0H0V26H142V0Z" fill="white"/>
</mask>
<g mask="url(#mask0_1_539)">
<path d="M102.929 7.10958C102.612 7.2412 102.342 7.4649 102.154 7.75191C101.965 8.03892 101.868 8.37614 101.873 8.7202C101.879 9.06427 101.987 9.39946 102.184 9.68269C102.381 9.96592 102.658 10.1842 102.979 10.3096C106.099 11.5196 110.779 13.9196 108.619 18.2696C107.009 21.5196 102.249 21.4596 99.4593 20.0696C99.0126 19.8429 98.8626 19.4896 99.0093 19.0096L99.3693 17.8796C99.5226 17.3863 99.8326 17.2496 100.299 17.4696C101.949 18.2396 104.319 18.8596 105.619 17.3196C105.8 17.1051 105.931 16.8535 106.004 16.5826C106.076 16.3118 106.088 16.0286 106.038 15.7532C105.989 15.4779 105.879 15.2173 105.716 14.9902C105.554 14.7631 105.343 14.575 105.099 14.4396C102.569 13.0296 98.0193 11.3196 98.9993 7.74958C100.069 3.83958 104.769 3.17958 107.819 4.86958C108.252 5.10958 108.362 5.44958 108.149 5.88958L107.589 7.10958C107.546 7.19772 107.485 7.27584 107.41 7.33875C107.335 7.40165 107.248 7.44789 107.154 7.47439C107.06 7.50089 106.962 7.50703 106.867 7.4924C106.771 7.47778 106.68 7.44273 106.599 7.38958C105.459 6.65625 104.236 6.56292 102.929 7.10958Z" fill="white"/>
<path d="M119.54 21.0408C117.328 21.0331 115.21 20.1259 113.652 18.5189C112.093 16.9119 111.222 14.7367 111.23 12.4718C111.238 10.2069 112.124 8.03779 113.694 6.44171C115.263 4.84563 117.388 3.95329 119.6 3.96099C121.812 3.96872 123.93 4.87587 125.488 6.48286C127.047 8.08986 127.918 10.2651 127.91 12.53C127.902 14.7949 127.016 16.964 125.446 18.5601C123.876 20.1562 121.752 21.0485 119.54 21.0408ZM119.58 18.2409C121.015 18.2409 122.391 17.6362 123.405 16.5597C124.42 15.4832 124.99 14.0232 124.99 12.5009C124.99 10.9786 124.42 9.51856 123.405 8.4421C122.391 7.36564 121.015 6.76089 119.58 6.76089C118.145 6.76089 116.769 7.36564 115.755 8.4421C114.74 9.51856 114.17 10.9786 114.17 12.5009C114.17 14.0232 114.74 15.4832 115.755 16.5597C116.769 17.6362 118.145 18.2409 119.58 18.2409Z" fill="white"/>
<path d="M44.48 17.9991H50.77C50.8326 17.9991 50.8945 18.0116 50.9522 18.0358C51.0099 18.06 51.0621 18.0956 51.1059 18.1403C51.1497 18.185 51.1841 18.238 51.2071 18.2962C51.2302 18.3543 51.2413 18.4165 51.24 18.4791L51.22 20.2791C51.2174 20.402 51.1667 20.519 51.0789 20.605C50.991 20.691 50.8729 20.7391 50.75 20.7391L41.47 20.7291C41.3453 20.7291 41.2258 20.6796 41.1377 20.5914C41.0495 20.5033 41 20.3837 41 20.2591V4.75906C41 4.63441 41.0495 4.51487 41.1377 4.42672C41.2258 4.33858 41.3453 4.28906 41.47 4.28906H43.54C43.6647 4.28906 43.7842 4.33858 43.8723 4.42672C43.9605 4.51487 44.01 4.63441 44.01 4.75906V17.5291C44.01 17.6537 44.0595 17.7733 44.1477 17.8614C44.2358 17.9496 44.3553 17.9991 44.48 17.9991Z" fill="white"/>
<path d="M57.03 17.9998H64.24C64.3113 17.9997 64.3819 18.0141 64.4475 18.042C64.5132 18.0698 64.5725 18.1107 64.622 18.162C64.6715 18.2134 64.7101 18.2742 64.7355 18.3408C64.761 18.4075 64.7727 18.4785 64.77 18.5498L64.71 20.2298C64.7048 20.3669 64.6467 20.4966 64.5479 20.5917C64.449 20.6868 64.3172 20.7399 64.18 20.7398L54.03 20.7298C53.8894 20.7298 53.7546 20.674 53.6552 20.5746C53.5558 20.4752 53.5 20.3404 53.5 20.1998V4.79977C53.5 4.65921 53.5558 4.5244 53.6552 4.42501C53.7546 4.32561 53.8894 4.26977 54.03 4.26977L63.96 4.25977C64.0988 4.25975 64.2322 4.31421 64.3313 4.41146C64.4304 4.5087 64.4874 4.64095 64.49 4.77977L64.53 6.47977C64.5313 6.55021 64.5186 6.62021 64.4926 6.68567C64.4665 6.75113 64.4277 6.81074 64.3783 6.86102C64.329 6.9113 64.2701 6.95124 64.2052 6.9785C64.1402 7.00575 64.0705 7.01979 64 7.01977L57.03 7.00977C56.8894 7.00977 56.7546 7.06561 56.6552 7.16501C56.5558 7.2644 56.5 7.39921 56.5 7.53977L56.51 9.83977C56.51 9.98034 56.5658 10.1152 56.6652 10.2146C56.7646 10.314 56.8994 10.3698 57.04 10.3698H63.61C63.7506 10.3698 63.8854 10.4256 63.9848 10.525C64.0842 10.6244 64.14 10.7592 64.14 10.8998L64.16 12.4798C64.16 12.6204 64.1042 12.7552 64.0048 12.8546C63.9054 12.954 63.7706 13.0098 63.63 13.0098L57.03 13.0198C56.8894 13.0198 56.7546 13.0756 56.6552 13.175C56.5558 13.2744 56.5 13.4092 56.5 13.5498V17.4698C56.5 17.6104 56.5558 17.7452 56.6552 17.8446C56.7546 17.944 56.8894 17.9998 57.03 17.9998Z" fill="white"/>
<path d="M70.6497 17.1101L69.4397 20.3901C69.3979 20.5041 69.3213 20.6021 69.2209 20.6702C69.1204 20.7384 69.0011 20.7733 68.8797 20.7701L67.0097 20.7101C66.9172 20.7068 66.8268 20.6814 66.746 20.6361C66.6653 20.5907 66.5966 20.5267 66.5457 20.4494C66.4948 20.372 66.4632 20.2836 66.4534 20.1915C66.4437 20.0995 66.4561 20.0064 66.4897 19.9201L72.4697 4.62008C72.5126 4.5096 72.5883 4.41492 72.6866 4.34876C72.785 4.28261 72.9012 4.24817 73.0197 4.25008L75.4997 4.28008C75.6177 4.28098 75.7326 4.31784 75.8291 4.38573C75.9255 4.45363 75.999 4.54933 76.0397 4.66008L81.5697 19.9101C81.6013 19.9958 81.6122 20.0879 81.6015 20.1786C81.5907 20.2694 81.5587 20.3563 81.508 20.4323C81.4574 20.5084 81.3894 20.5714 81.3098 20.6161C81.2301 20.6609 81.141 20.6863 81.0497 20.6901L79.1897 20.7701C79.0667 20.7755 78.9451 20.7416 78.8426 20.6732C78.7401 20.6049 78.6621 20.5058 78.6197 20.3901L77.4397 17.1201C77.3984 17.0078 77.3234 16.9109 77.225 16.8429C77.1265 16.7749 77.0094 16.739 76.8897 16.7401L71.1997 16.7301C71.08 16.729 70.9629 16.7649 70.8644 16.8329C70.766 16.9009 70.691 16.9978 70.6497 17.1101ZM72.0097 13.5501C71.992 13.5949 71.9854 13.6433 71.9903 13.6911C71.9953 13.739 72.0117 13.785 72.0382 13.8252C72.0647 13.8654 72.1004 13.8987 72.1425 13.9222C72.1845 13.9456 72.2316 13.9586 72.2797 13.9601L75.9297 14.0201C75.9783 14.0213 76.0264 14.0106 76.07 13.989C76.1136 13.9675 76.1512 13.9356 76.1798 13.8963C76.2083 13.8569 76.2268 13.8112 76.2338 13.7631C76.2408 13.715 76.2359 13.6659 76.2197 13.6201L74.4797 8.52008C74.461 8.45969 74.4238 8.40672 74.3733 8.36876C74.3227 8.33079 74.2615 8.30976 74.1983 8.30865C74.1351 8.30754 74.0732 8.32642 74.0214 8.36259C73.9695 8.39876 73.9305 8.45038 73.9097 8.51008L72.0097 13.5501Z" fill="white"/>
<path d="M83.7305 4.94977C83.7305 4.76942 83.8022 4.59646 83.9297 4.46894C84.0572 4.34141 84.2302 4.26977 84.4105 4.26977L88.9405 4.25977C90.9535 4.25714 92.8851 5.05848 94.3103 6.4875C95.7356 7.91653 96.5378 9.85618 96.5405 11.8798V13.0998C96.5418 14.1018 96.3468 15.0942 95.9666 16.0205C95.5864 16.9467 95.0284 17.7885 94.3246 18.498C93.6207 19.2074 92.7847 19.7706 91.8643 20.1552C90.944 20.5399 89.9572 20.7385 88.9605 20.7398L84.4305 20.7498C84.2502 20.7498 84.0772 20.6782 83.9497 20.5506C83.8221 20.4231 83.7505 20.2501 83.7505 20.0698L83.7305 4.94977ZM86.7505 7.41977L86.7905 17.5198C86.7905 17.6391 86.8379 17.7536 86.9223 17.838C87.0067 17.9224 87.1212 17.9698 87.2405 17.9698L88.7605 17.9598C90.0187 17.9546 91.2233 17.4378 92.1101 16.5229C92.9969 15.608 93.4933 14.3697 93.4905 13.0798V11.8198C93.4891 11.1794 93.3646 10.5456 93.124 9.95462C92.8834 9.36364 92.5315 8.82708 92.0885 8.37566C91.6454 7.92424 91.1199 7.56683 90.542 7.32387C89.964 7.08091 89.3451 6.95718 88.7205 6.95977L87.2005 6.96977C87.0812 6.96977 86.9667 7.01718 86.8823 7.10157C86.7979 7.18596 86.7505 7.30042 86.7505 7.41977Z" fill="white"/>
<path d="M142 20.1308V20.5108C141.16 20.7641 140.287 20.8241 139.38 20.6908C139.047 20.6441 138.793 20.4741 138.62 20.1808C137.693 18.6475 136.83 17.0808 136.03 15.4808C135.677 14.7808 135.037 14.6308 134.11 15.0308C133.883 15.1308 133.77 15.3075 133.77 15.5608V19.9608C133.77 20.4475 133.527 20.6975 133.04 20.7108L131.51 20.7508C131.01 20.7641 130.76 20.5175 130.76 20.0108L130.77 4.77085C130.77 4.65917 130.812 4.55157 130.888 4.46986C130.964 4.38816 131.069 4.33846 131.18 4.33085C132.98 4.20418 134.833 4.20751 136.74 4.34085C142.06 4.72085 143.81 11.3508 139.2 14.1108C138.893 14.2908 138.827 14.5375 139 14.8508L142 20.1308ZM133.77 7.26085V11.9808C133.77 12.0524 133.798 12.1211 133.849 12.1717C133.9 12.2224 133.968 12.2508 134.04 12.2508H135.89C136.67 12.2508 137.418 11.9885 137.969 11.5215C138.52 11.0545 138.83 10.4212 138.83 9.76085V9.48085C138.83 8.82046 138.52 8.18712 137.969 7.72015C137.418 7.25318 136.67 6.99085 135.89 6.99085H134.04C133.968 6.99085 133.9 7.01929 133.849 7.06993C133.798 7.12056 133.77 7.18924 133.77 7.26085Z" fill="white"/>
<path d="M15.5695 9.00977H10.4495C9.65977 9.00977 9.01953 9.65001 9.01953 10.4398V15.5598C9.01953 16.3496 9.65977 16.9898 10.4495 16.9898H15.5695C16.3593 16.9898 16.9995 16.3496 16.9995 15.5598V10.4398C16.9995 9.65001 16.3593 9.00977 15.5695 9.00977Z" fill="#FF9900"/>
<path d="M15.55 0H10.43C9.64023 0 9 0.640232 9 1.43V6.55C9 7.33977 9.64023 7.98 10.43 7.98H15.55C16.3398 7.98 16.98 7.33977 16.98 6.55V1.43C16.98 0.640232 16.3398 0 15.55 0Z" fill="#FF9900"/>
<path d="M24.55 18H19.43C18.6402 18 18 18.6402 18 19.43V24.55C18 25.3398 18.6402 25.98 19.43 25.98H24.55C25.3398 25.98 25.98 25.3398 25.98 24.55V19.43C25.98 18.6402 25.3398 18 24.55 18Z" fill="#FF9900"/>
<path d="M6.55 9H1.43C0.640232 9 0 9.64023 0 10.43V15.55C0 16.3398 0.640232 16.98 1.43 16.98H6.55C7.33977 16.98 7.98 16.3398 7.98 15.55V10.43C7.98 9.64023 7.33977 9 6.55 9Z" fill="white"/>
<path d="M6.55 0H1.43C0.640232 0 0 0.640232 0 1.43V6.55C0 7.33977 0.640232 7.98 1.43 7.98H6.55C7.33977 7.98 7.98 7.33977 7.98 6.55V1.43C7.98 0.640232 7.33977 0 6.55 0Z" fill="white"/>
<path d="M24.55 0H19.43C18.6402 0 18 0.640232 18 1.43V6.55C18 7.33977 18.6402 7.98 19.43 7.98H24.55C25.3398 7.98 25.98 7.33977 25.98 6.55V1.43C25.98 0.640232 25.3398 0 24.55 0Z" fill="white"/>
<path d="M15.55 18H10.43C9.64023 18 9 18.6402 9 19.43V24.55C9 25.3398 9.64023 25.98 10.43 25.98H15.55C16.3398 25.98 16.98 25.3398 16.98 24.55V19.43C16.98 18.6402 16.3398 18 15.55 18Z" fill="white"/>
<path d="M6.55 18H1.43C0.640232 18 0 18.6402 0 19.43V24.55C0 25.3398 0.640232 25.98 1.43 25.98H6.55C7.33977 25.98 7.98 25.3398 7.98 24.55V19.43C7.98 18.6402 7.33977 18 6.55 18Z" fill="white"/>
<path d="M24.5382 8.97274L19.3985 9.02657C18.6087 9.03484 17.9752 9.68174 17.9835 10.4714L18.0373 15.6112C18.0456 16.4009 18.6925 17.0344 19.4822 17.0261L24.622 16.9723C25.4117 16.964 26.0452 16.3171 26.0369 15.5274L25.9831 10.3877C25.9748 9.59797 25.3279 8.96447 24.5382 8.97274Z" fill="#FF9900"/>
</g>
</g>
<defs>
<clipPath id="clip0_1_539">
<rect width="142" height="26" fill="white"/>
</clipPath>
</defs>
</svg>
