<svg width="160" height="54" viewBox="0 0 160 54" fill="none" xmlns="http://www.w3.org/2000/svg">
<path d="M68.0883 27.6924C68.0883 35.1878 62.2118 40.7111 55 40.7111C47.7883 40.7111 41.9118 35.1878 41.9118 27.6924C41.9118 20.1441 47.7883 14.6737 55 14.6737C62.2118 14.6737 68.0883 20.1441 68.0883 27.6924ZM62.3589 27.6924C62.3589 23.0085 58.953 19.8037 55 19.8037C51.0471 19.8037 47.6412 23.0085 47.6412 27.6924C47.6412 32.3294 51.0471 35.5811 55 35.5811C58.953 35.5811 62.3589 32.3235 62.3589 27.6924Z" fill="#D3D3D3"/>
<path d="M96.3237 27.6924C96.3237 35.1878 90.4472 40.7111 83.2355 40.7111C76.0237 40.7111 70.1472 35.1878 70.1472 27.6924C70.1472 20.15 76.0237 14.6737 83.2355 14.6737C90.4472 14.6737 96.3237 20.1441 96.3237 27.6924ZM90.5943 27.6924C90.5943 23.0085 87.1884 19.8037 83.2355 19.8037C79.2825 19.8037 75.8766 23.0085 75.8766 27.6924C75.8766 32.3294 79.2825 35.5811 83.2355 35.5811C87.1884 35.5811 90.5943 32.3235 90.5943 27.6924Z" fill="#D3D3D3"/>
<path d="M123.382 15.4602V38.8328C123.382 48.4472 117.7 52.3739 110.982 52.3739C104.659 52.3739 100.853 48.1537 99.4177 44.7024L104.406 42.6304C105.294 44.7494 107.471 47.2498 110.977 47.2498C115.277 47.2498 117.941 44.6026 117.941 39.6194V37.747H117.741C116.459 39.3259 113.988 40.7052 110.871 40.7052C104.347 40.7052 98.3707 35.0352 98.3707 27.7394C98.3707 20.3907 104.347 14.6737 110.871 14.6737C113.982 14.6737 116.453 16.0531 117.741 17.585H117.941V15.4661H123.382V15.4602ZM118.347 27.7394C118.347 23.1552 115.282 19.8037 111.382 19.8037C107.429 19.8037 104.118 23.1552 104.118 27.7394C104.118 32.2765 107.429 35.5811 111.382 35.5811C115.282 35.5811 118.347 32.2765 118.347 27.7394Z" fill="#D3D3D3"/>
<path d="M132.353 1.75977V39.9119H126.765V1.75977H132.353Z" fill="#D3D3D3"/>
<path d="M154.129 31.9773L158.576 34.9356C157.141 37.0545 153.682 40.7054 147.706 40.7054C140.294 40.7054 134.759 34.9884 134.759 27.6867C134.759 19.9447 140.341 14.668 147.065 14.668C153.835 14.668 157.147 20.0445 158.229 22.9499L158.823 24.4291L141.382 31.6369C142.718 34.2488 144.794 35.5812 147.706 35.5812C150.624 35.5812 152.647 34.1491 154.129 31.9773ZM140.441 27.2934L152.1 22.4628C151.459 20.8369 149.529 19.7041 147.259 19.7041C144.347 19.7041 140.294 22.2691 140.441 27.2934Z" fill="#D3D3D3"/>
<path d="M20.759 24.3054V18.7821H39.4119C39.5943 19.7447 39.6884 20.8834 39.6884 22.116C39.6884 26.26 38.5531 31.3841 34.8943 35.035C31.3354 38.7328 26.7884 40.705 20.7649 40.705C9.60015 40.705 0.211914 31.6306 0.211914 20.4902C0.211914 9.34974 9.60015 0.275391 20.7649 0.275391C26.9413 0.275391 31.3413 2.69365 34.6472 5.84561L30.7413 9.743C28.3707 7.5243 25.159 5.79865 20.759 5.79865C12.606 5.79865 6.22956 12.355 6.22956 20.4902C6.22956 28.6254 12.606 35.1817 20.759 35.1817C26.0472 35.1817 29.059 33.0628 30.9884 31.1376C32.5531 29.5763 33.5825 27.3458 33.9884 24.2995L20.759 24.3054Z" fill="#D3D3D3"/>
</svg>
