<svg width="264" height="54" viewBox="0 0 264 54" fill="none" xmlns="http://www.w3.org/2000/svg">
<g clip-path="url(#clip0_1_449)">
<path fill-rule="evenodd" clip-rule="evenodd" d="M80.9829 37.8425V16.3701C80.9829 7.22835 73.6794 0 64.6575 0H60.7909V9.56693C60.7909 22.9606 49.8356 33.8032 36.3027 33.8032H26.6363V37.6299C26.6363 46.5591 33.9398 53.7874 42.9618 53.7874H64.6575C73.6794 54 80.9829 46.7717 80.9829 37.8425Z" fill="#D3D3D3"/>
<path fill-rule="evenodd" clip-rule="evenodd" d="M52.4134 9.56693V0H42.747C33.725 0 26.4215 7.22835 26.4215 16.3701V25.937H36.0879C45.1099 25.937 52.4134 18.4961 52.4134 9.56693Z" fill="#D3D3D3"/>
<path fill-rule="evenodd" clip-rule="evenodd" d="M7.08869 7.44141H0V14.4572C0 20.8351 5.15541 25.9375 11.5997 25.9375H18.6884V18.9217C18.6884 12.7564 13.3181 7.44141 7.08869 7.44141Z" fill="#D3D3D3"/>
<path fill-rule="evenodd" clip-rule="evenodd" d="M139.625 15.9449V52.0867C139.625 52.0867 139.84 53.3623 141.344 53.3623H147.573C147.573 53.3623 148.862 53.1497 148.862 51.8741V15.9449C148.862 15.9449 148.862 14.2441 147.144 14.2441H141.129C140.914 14.2441 139.625 14.2441 139.625 15.9449Z" fill="#D3D3D3"/>
<path fill-rule="evenodd" clip-rule="evenodd" d="M162.396 14.456H156.811C156.811 14.456 154.877 14.2434 155.307 16.1568C155.737 18.0701 164.544 48.8969 164.544 48.8969C164.544 48.8969 166.477 53.9993 172.921 53.9993C179.365 53.9993 181.084 49.1095 181.084 49.1095L190.321 16.7946C190.321 16.7946 191.18 14.456 189.247 14.456H182.802C182.802 14.456 181.299 14.6686 180.869 16.3694C180.44 18.0701 174.21 45.7079 174.21 45.7079C174.21 45.7079 173.995 46.7709 173.136 46.7709C172.062 46.7709 171.847 45.4953 171.847 45.4953L164.973 15.9442C164.973 16.1568 164.759 14.2434 162.396 14.456Z" fill="#D3D3D3"/>
<path fill-rule="evenodd" clip-rule="evenodd" d="M103.967 14.4559H98.3824C98.3824 14.4559 96.4491 14.2433 96.8787 16.1567C97.5231 17.8575 106.115 48.8969 106.115 48.8969C106.115 48.8969 108.049 53.9992 114.493 53.9992C120.937 53.9992 122.656 49.1095 122.656 49.1095L131.893 16.7945C131.893 16.7945 132.752 14.4559 130.818 14.4559H124.374C124.374 14.4559 122.871 14.6685 122.441 16.3693C122.011 18.0701 115.782 45.9205 115.782 45.9205C115.782 45.9205 115.567 46.9835 114.708 46.9835C113.634 46.9835 113.419 45.7079 113.419 45.7079L106.545 16.1567C106.545 16.1567 106.33 14.2433 103.967 14.4559Z" fill="#D3D3D3"/>
<path fill-rule="evenodd" clip-rule="evenodd" d="M196.335 15.7327V39.9689C196.335 39.9689 196.765 53.7878 212.446 53.7878C228.127 53.7878 228.342 40.6067 228.342 40.6067V15.7327C228.342 15.7327 228.557 14.0319 226.838 14.0319H220.824C220.824 14.0319 219.535 13.8193 219.535 15.5201V40.6067C219.535 40.6067 218.676 45.9217 212.661 45.9217C206.646 45.9217 205.572 40.6067 205.572 40.6067V16.3705C205.572 16.3705 205.787 14.2445 203.854 14.2445H197.409C197.624 14.2445 196.335 14.2445 196.335 15.7327Z" fill="#D3D3D3"/>
<path fill-rule="evenodd" clip-rule="evenodd" d="M260.778 21.8974C260.778 21.8974 253.259 21.047 250.037 21.2596C246.815 21.2596 245.097 21.6848 245.097 24.0234C245.097 26.362 247.889 27.4249 250.037 28.4879C252.4 29.9761 258.2 33.1651 259.918 34.6533C261.637 36.1415 263.785 38.4801 263.785 42.9446C263.785 47.1966 261.422 51.4486 257.341 52.7242C253.045 54.2123 245.311 53.7872 242.089 53.362C238.867 52.9368 238.008 52.5116 237.578 52.5116C236.934 52.299 236.29 51.8738 236.29 50.5982V47.1966C236.29 47.1966 236.29 45.2832 238.438 45.7084C240.586 46.1336 246.6 46.984 249.393 46.7714C252.4 46.5588 254.333 46.3462 254.763 43.795C254.978 41.2438 251.971 40.1809 248.748 38.2675C245.741 36.3541 242.949 34.8659 240.586 32.9525C238.223 31.0391 236.075 27.425 236.075 23.5982C236.075 19.7714 238.867 14.0312 248.963 14.0312C257.985 14.0312 261.207 15.0942 261.852 15.3068C262.281 15.5194 263.141 15.732 263.141 17.0076V20.8344C263.141 20.8344 263.141 22.11 260.778 21.8974Z" fill="#D3D3D3"/>
<path fill-rule="evenodd" clip-rule="evenodd" d="M139.626 1.91386V7.86662C139.626 7.86662 139.841 9.35481 140.915 9.35481H147.144C147.144 9.35481 148.648 9.5674 148.648 7.86662V1.91386C148.648 1.91386 148.863 0.213074 146.715 0.213074H141.13C139.196 0.213074 139.626 1.91386 139.626 1.91386Z" fill="#D3D3D3"/>
</g>
<defs>
<clipPath id="clip0_1_449">
<rect width="264" height="54" fill="white"/>
</clipPath>
</defs>
</svg>
